<svg width="64" height="64" viewBox="0 0 64 64" fill="none" xmlns="http://www.w3.org/2000/svg">
<rect width="64" height="64" rx="32" fill="white"/>
<path d="M20.3074 46.9885V18.4192H32.6738C35.2315 18.4192 37.4354 18.841 39.2856 19.6844C41.1358 20.5007 42.5643 21.6843 43.571 23.2352C44.5777 24.7861 45.0811 26.6363 45.0811 28.7858C45.0811 30.9081 44.5777 32.7447 43.571 34.2956C42.5643 35.8465 41.1358 37.0437 39.2856 37.8872C37.4354 38.7034 35.2315 39.1116 32.6738 39.1116H23.9806L26.9192 36.1322V46.9885H20.3074ZM26.9192 36.8668L23.9806 33.7242H32.3065C34.3472 33.7242 35.8709 33.2889 36.8776 32.4182C37.8843 31.5475 38.3877 30.3367 38.3877 28.7858C38.3877 27.2077 37.8843 25.9833 36.8776 25.1126C35.8709 24.2419 34.3472 23.8066 32.3065 23.8066H23.9806L26.9192 20.664V36.8668Z" fill="#E4271D"/>
<path d="M59.954 10.5747C59.954 14.1804 57.0309 17.1034 53.4252 17.1034C49.8195 17.1034 46.8965 14.1804 46.8965 10.5747C46.8965 6.96899 49.8195 4.04597 53.4252 4.04597C57.0309 4.04597 59.954 6.96899 59.954 10.5747Z" fill="#00B050"/>
</svg>
